<?xml version="1.0" encoding="UTF-8" standalone="no"?>
<!-- Created with Inkscape (http://www.inkscape.org/) -->

<svg
   xmlns:dc="http://purl.org/dc/elements/1.1/"
   xmlns:cc="http://creativecommons.org/ns#"
   xmlns:rdf="http://www.w3.org/1999/02/22-rdf-syntax-ns#"
   xmlns:svg="http://www.w3.org/2000/svg"
   xmlns="http://www.w3.org/2000/svg"
   xmlns:sodipodi="http://sodipodi.sourceforge.net/DTD/sodipodi-0.dtd"
   xmlns:inkscape="http://www.inkscape.org/namespaces/inkscape"
   width="400"
   height="1500"
   id="svg4545"
   version="1.1"
   inkscape:version="0.48.0 r9654"
   sodipodi:docname="ALL_KEYS.svg">
  <defs
     id="defs4547">
    <inkscape:perspective
       sodipodi:type="inkscape:persp3d"
       inkscape:vp_x="0 : 526.18109 : 1"
       inkscape:vp_y="0 : 1000 : 0"
       inkscape:vp_z="744.09448 : 526.18109 : 1"
       inkscape:persp3d-origin="372.04724 : 350.78739 : 1"
       id="perspective4553" />
    <inkscape:perspective
       id="perspective5079"
       inkscape:persp3d-origin="0.5 : 0.33333333 : 1"
       inkscape:vp_z="1 : 0.5 : 1"
       inkscape:vp_y="0 : 1000 : 0"
       inkscape:vp_x="0 : 0.5 : 1"
       sodipodi:type="inkscape:persp3d" />
    <inkscape:perspective
       id="perspective5079-3"
       inkscape:persp3d-origin="0.5 : 0.33333333 : 1"
       inkscape:vp_z="1 : 0.5 : 1"
       inkscape:vp_y="0 : 1000 : 0"
       inkscape:vp_x="0 : 0.5 : 1"
       sodipodi:type="inkscape:persp3d" />
    <inkscape:perspective
       id="perspective5079-8"
       inkscape:persp3d-origin="0.5 : 0.33333333 : 1"
       inkscape:vp_z="1 : 0.5 : 1"
       inkscape:vp_y="0 : 1000 : 0"
       inkscape:vp_x="0 : 0.5 : 1"
       sodipodi:type="inkscape:persp3d" />
    <inkscape:perspective
       id="perspective5079-5"
       inkscape:persp3d-origin="0.5 : 0.33333333 : 1"
       inkscape:vp_z="1 : 0.5 : 1"
       inkscape:vp_y="0 : 1000 : 0"
       inkscape:vp_x="0 : 0.5 : 1"
       sodipodi:type="inkscape:persp3d" />
    <inkscape:perspective
       id="perspective5079-0"
       inkscape:persp3d-origin="0.5 : 0.33333333 : 1"
       inkscape:vp_z="1 : 0.5 : 1"
       inkscape:vp_y="0 : 1000 : 0"
       inkscape:vp_x="0 : 0.5 : 1"
       sodipodi:type="inkscape:persp3d" />
    <inkscape:perspective
       id="perspective5155"
       inkscape:persp3d-origin="0.5 : 0.33333333 : 1"
       inkscape:vp_z="1 : 0.5 : 1"
       inkscape:vp_y="0 : 1000 : 0"
       inkscape:vp_x="0 : 0.5 : 1"
       sodipodi:type="inkscape:persp3d" />
    <inkscape:perspective
       id="perspective5195"
       inkscape:persp3d-origin="0.5 : 0.33333333 : 1"
       inkscape:vp_z="1 : 0.5 : 1"
       inkscape:vp_y="0 : 1000 : 0"
       inkscape:vp_x="0 : 0.5 : 1"
       sodipodi:type="inkscape:persp3d" />
    <inkscape:perspective
       id="perspective5217"
       inkscape:persp3d-origin="0.5 : 0.33333333 : 1"
       inkscape:vp_z="1 : 0.5 : 1"
       inkscape:vp_y="0 : 1000 : 0"
       inkscape:vp_x="0 : 0.5 : 1"
       sodipodi:type="inkscape:persp3d" />
    <inkscape:perspective
       id="perspective5239"
       inkscape:persp3d-origin="0.5 : 0.33333333 : 1"
       inkscape:vp_z="1 : 0.5 : 1"
       inkscape:vp_y="0 : 1000 : 0"
       inkscape:vp_x="0 : 0.5 : 1"
       sodipodi:type="inkscape:persp3d" />
    <inkscape:perspective
       id="perspective5322"
       inkscape:persp3d-origin="0.5 : 0.33333333 : 1"
       inkscape:vp_z="1 : 0.5 : 1"
       inkscape:vp_y="0 : 1000 : 0"
       inkscape:vp_x="0 : 0.5 : 1"
       sodipodi:type="inkscape:persp3d" />
    <inkscape:perspective
       id="perspective5371"
       inkscape:persp3d-origin="0.5 : 0.33333333 : 1"
       inkscape:vp_z="1 : 0.5 : 1"
       inkscape:vp_y="0 : 1000 : 0"
       inkscape:vp_x="0 : 0.5 : 1"
       sodipodi:type="inkscape:persp3d" />
    <inkscape:perspective
       id="perspective5393"
       inkscape:persp3d-origin="0.5 : 0.33333333 : 1"
       inkscape:vp_z="1 : 0.5 : 1"
       inkscape:vp_y="0 : 1000 : 0"
       inkscape:vp_x="0 : 0.5 : 1"
       sodipodi:type="inkscape:persp3d" />
    <inkscape:perspective
       id="perspective5415"
       inkscape:persp3d-origin="0.5 : 0.33333333 : 1"
       inkscape:vp_z="1 : 0.5 : 1"
       inkscape:vp_y="0 : 1000 : 0"
       inkscape:vp_x="0 : 0.5 : 1"
       sodipodi:type="inkscape:persp3d" />
    <inkscape:perspective
       id="perspective5444"
       inkscape:persp3d-origin="0.5 : 0.33333333 : 1"
       inkscape:vp_z="1 : 0.5 : 1"
       inkscape:vp_y="0 : 1000 : 0"
       inkscape:vp_x="0 : 0.5 : 1"
       sodipodi:type="inkscape:persp3d" />
    <inkscape:perspective
       id="perspective5538"
       inkscape:persp3d-origin="0.5 : 0.33333333 : 1"
       inkscape:vp_z="1 : 0.5 : 1"
       inkscape:vp_y="0 : 1000 : 0"
       inkscape:vp_x="0 : 0.5 : 1"
       sodipodi:type="inkscape:persp3d" />
    <inkscape:perspective
       id="perspective5538-9"
       inkscape:persp3d-origin="0.5 : 0.33333333 : 1"
       inkscape:vp_z="1 : 0.5 : 1"
       inkscape:vp_y="0 : 1000 : 0"
       inkscape:vp_x="0 : 0.5 : 1"
       sodipodi:type="inkscape:persp3d" />
    <inkscape:perspective
       id="perspective5538-3"
       inkscape:persp3d-origin="0.5 : 0.33333333 : 1"
       inkscape:vp_z="1 : 0.5 : 1"
       inkscape:vp_y="0 : 1000 : 0"
       inkscape:vp_x="0 : 0.5 : 1"
       sodipodi:type="inkscape:persp3d" />
    <inkscape:perspective
       id="perspective5538-6"
       inkscape:persp3d-origin="0.5 : 0.33333333 : 1"
       inkscape:vp_z="1 : 0.5 : 1"
       inkscape:vp_y="0 : 1000 : 0"
       inkscape:vp_x="0 : 0.5 : 1"
       sodipodi:type="inkscape:persp3d" />
    <inkscape:perspective
       id="perspective5670"
       inkscape:persp3d-origin="0.5 : 0.33333333 : 1"
       inkscape:vp_z="1 : 0.5 : 1"
       inkscape:vp_y="0 : 1000 : 0"
       inkscape:vp_x="0 : 0.5 : 1"
       sodipodi:type="inkscape:persp3d" />
    <inkscape:perspective
       id="perspective5701"
       inkscape:persp3d-origin="0.5 : 0.33333333 : 1"
       inkscape:vp_z="1 : 0.5 : 1"
       inkscape:vp_y="0 : 1000 : 0"
       inkscape:vp_x="0 : 0.5 : 1"
       sodipodi:type="inkscape:persp3d" />
    <inkscape:perspective
       id="perspective5749"
       inkscape:persp3d-origin="0.5 : 0.33333333 : 1"
       inkscape:vp_z="1 : 0.5 : 1"
       inkscape:vp_y="0 : 1000 : 0"
       inkscape:vp_x="0 : 0.5 : 1"
       sodipodi:type="inkscape:persp3d" />
    <inkscape:perspective
       id="perspective5811"
       inkscape:persp3d-origin="0.5 : 0.33333333 : 1"
       inkscape:vp_z="1 : 0.5 : 1"
       inkscape:vp_y="0 : 1000 : 0"
       inkscape:vp_x="0 : 0.5 : 1"
       sodipodi:type="inkscape:persp3d" />
    <inkscape:perspective
       id="perspective5862"
       inkscape:persp3d-origin="0.5 : 0.33333333 : 1"
       inkscape:vp_z="1 : 0.5 : 1"
       inkscape:vp_y="0 : 1000 : 0"
       inkscape:vp_x="0 : 0.5 : 1"
       sodipodi:type="inkscape:persp3d" />
    <inkscape:perspective
       id="perspective5862-9"
       inkscape:persp3d-origin="0.5 : 0.33333333 : 1"
       inkscape:vp_z="1 : 0.5 : 1"
       inkscape:vp_y="0 : 1000 : 0"
       inkscape:vp_x="0 : 0.5 : 1"
       sodipodi:type="inkscape:persp3d" />
    <inkscape:perspective
       id="perspective5862-99"
       inkscape:persp3d-origin="0.5 : 0.33333333 : 1"
       inkscape:vp_z="1 : 0.5 : 1"
       inkscape:vp_y="0 : 1000 : 0"
       inkscape:vp_x="0 : 0.5 : 1"
       sodipodi:type="inkscape:persp3d" />
    <inkscape:perspective
       id="perspective5862-5"
       inkscape:persp3d-origin="0.5 : 0.33333333 : 1"
       inkscape:vp_z="1 : 0.5 : 1"
       inkscape:vp_y="0 : 1000 : 0"
       inkscape:vp_x="0 : 0.5 : 1"
       sodipodi:type="inkscape:persp3d" />
    <inkscape:perspective
       id="perspective5862-1"
       inkscape:persp3d-origin="0.5 : 0.33333333 : 1"
       inkscape:vp_z="1 : 0.5 : 1"
       inkscape:vp_y="0 : 1000 : 0"
       inkscape:vp_x="0 : 0.5 : 1"
       sodipodi:type="inkscape:persp3d" />
    <inkscape:perspective
       id="perspective5862-2"
       inkscape:persp3d-origin="0.5 : 0.33333333 : 1"
       inkscape:vp_z="1 : 0.5 : 1"
       inkscape:vp_y="0 : 1000 : 0"
       inkscape:vp_x="0 : 0.5 : 1"
       sodipodi:type="inkscape:persp3d" />
    <inkscape:perspective
       id="perspective5862-23"
       inkscape:persp3d-origin="0.5 : 0.33333333 : 1"
       inkscape:vp_z="1 : 0.5 : 1"
       inkscape:vp_y="0 : 1000 : 0"
       inkscape:vp_x="0 : 0.5 : 1"
       sodipodi:type="inkscape:persp3d" />
    <inkscape:perspective
       id="perspective5862-8"
       inkscape:persp3d-origin="0.5 : 0.33333333 : 1"
       inkscape:vp_z="1 : 0.5 : 1"
       inkscape:vp_y="0 : 1000 : 0"
       inkscape:vp_x="0 : 0.5 : 1"
       sodipodi:type="inkscape:persp3d" />
    <inkscape:perspective
       id="perspective5862-52"
       inkscape:persp3d-origin="0.5 : 0.33333333 : 1"
       inkscape:vp_z="1 : 0.5 : 1"
       inkscape:vp_y="0 : 1000 : 0"
       inkscape:vp_x="0 : 0.5 : 1"
       sodipodi:type="inkscape:persp3d" />
    <filter
       id="filter6064"
       inkscape:label="filter1"
       color-interpolation-filters="sRGB" />
  </defs>
  <sodipodi:namedview
     id="base"
     pagecolor="#ffffff"
     bordercolor="#666666"
     borderopacity="1.0"
     inkscape:pageopacity="0.0"
     inkscape:pageshadow="2"
     inkscape:zoom="0.98994949"
     inkscape:cx="218.37271"
     inkscape:cy="33.209139"
     inkscape:document-units="px"
     inkscape:current-layer="layer5"
     showgrid="true"
     showguides="false"
     inkscape:window-width="1280"
     inkscape:window-height="778"
     inkscape:window-x="-8"
     inkscape:window-y="-8"
     inkscape:window-maximized="1">
    <inkscape:grid
       type="xygrid"
       id="grid4557"
       empspacing="5"
       visible="true"
       enabled="true"
       snapvisiblegridlinesonly="false"
       spacingx="100px"
       spacingy="100px" />
  </sodipodi:namedview>
  <metadata
     id="metadata4550">
    <rdf:RDF>
      <cc:Work
         rdf:about="">
        <dc:format>image/svg+xml</dc:format>
        <dc:type
           rdf:resource="http://purl.org/dc/dcmitype/StillImage" />
        <dc:title />
      </cc:Work>
    </rdf:RDF>
  </metadata>
  <g
     inkscape:groupmode="layer"
     id="layer6"
     inkscape:label="background"
     transform="translate(0,900)" />
  <g
     inkscape:label="construction"
     inkscape:groupmode="layer"
     id="layer1"
     transform="translate(0,447.63782)"
     style="display:none">
    <rect
       style="fill:#6db2ff;fill-opacity:0.27986348;stroke:#000000;stroke-opacity:0.44363637"
       id="rect4559-2"
       width="100"
       height="100"
       x="100.5"
       y="951.86218" />
    <rect
       style="fill:#6db2ff;fill-opacity:0.27986348;stroke:#000000;stroke-opacity:0.44363637"
       id="rect4559-3"
       width="100"
       height="100"
       x="200.5"
       y="951.86218" />
    <rect
       style="fill:#6db2ff;fill-opacity:0.27986348;stroke:#000000;stroke-opacity:0.44363637"
       id="rect4559-28"
       width="100"
       height="100"
       x="300.5"
       y="951.86218" />
    <rect
       style="fill:#6db2ff;fill-opacity:0.27986348;stroke:#000000;stroke-opacity:0.44363637"
       id="rect4559-2-3"
       width="100"
       height="100"
       x="0.5"
       y="951.86218" />
    <rect
       style="fill:#6db2ff;fill-opacity:0.27986348;stroke:#000000;stroke-opacity:0.44363637"
       id="rect4559-2-2"
       width="100"
       height="100"
       x="100.5"
       y="851.86218" />
    <rect
       style="fill:#6db2ff;fill-opacity:0.27986348;stroke:#000000;stroke-opacity:0.44363637"
       id="rect4559-3-5"
       width="100"
       height="100"
       x="200.5"
       y="851.86218" />
    <rect
       style="fill:#6db2ff;fill-opacity:0.27986348;stroke:#000000;stroke-opacity:0.44363637"
       id="rect4559-28-3"
       width="100"
       height="100"
       x="300.5"
       y="851.86218" />
    <rect
       style="fill:#6db2ff;fill-opacity:0.27986348;stroke:#000000;stroke-opacity:0.44363637"
       id="rect4559-2-3-0"
       width="100"
       height="100"
       x="0.5"
       y="851.86218" />
    <rect
       style="fill:#6db2ff;fill-opacity:0.27986348;stroke:#000000;stroke-opacity:0.44363637"
       id="rect4559-2-2-6"
       width="100"
       height="100"
       x="100.5"
       y="751.86218" />
    <rect
       style="fill:#6db2ff;fill-opacity:0.27986348;stroke:#000000;stroke-opacity:0.44363637"
       id="rect4559-3-5-4"
       width="100"
       height="100"
       x="200.5"
       y="751.86218" />
    <rect
       style="fill:#6db2ff;fill-opacity:0.27986348;stroke:#000000;stroke-opacity:0.44363637"
       id="rect4559-28-3-7"
       width="100"
       height="100"
       x="300.5"
       y="751.86218" />
    <rect
       style="fill:#6db2ff;fill-opacity:0.27986348;stroke:#000000;stroke-opacity:0.44363637"
       id="rect4559-2-3-0-2"
       width="100"
       height="100"
       x="0.5"
       y="751.86218" />
    <rect
       style="fill:#6db2ff;fill-opacity:0.27986348;stroke:#000000;stroke-opacity:0.44363637"
       id="rect4559-2-2-68"
       width="100"
       height="100"
       x="100.5"
       y="651.86218" />
    <rect
       style="fill:#6db2ff;fill-opacity:0.27986348;stroke:#000000;stroke-opacity:0.44363637"
       id="rect4559-3-5-9"
       width="100"
       height="100"
       x="200.5"
       y="651.86218" />
    <rect
       style="fill:#6db2ff;fill-opacity:0.27986348;stroke:#000000;stroke-opacity:0.44363637"
       id="rect4559-28-3-6"
       width="100"
       height="100"
       x="300.5"
       y="651.86218" />
    <rect
       style="fill:#6db2ff;fill-opacity:0.27986348;stroke:#000000;stroke-opacity:0.44363637"
       id="rect4559-2-3-0-9"
       width="100"
       height="100"
       x="0.5"
       y="651.86218" />
    <rect
       style="fill:#6db2ff;fill-opacity:0.27986348;stroke:#000000;stroke-opacity:0.44363637"
       id="rect4559-2-2-9"
       width="100"
       height="100"
       x="100.5"
       y="551.86218" />
    <rect
       style="fill:#6db2ff;fill-opacity:0.27986348;stroke:#000000;stroke-opacity:0.44363637"
       id="rect4559-3-5-6"
       width="100"
       height="100"
       x="200.5"
       y="551.86218" />
    <rect
       style="fill:#6db2ff;fill-opacity:0.27986348;stroke:#000000;stroke-opacity:0.44363637"
       id="rect4559-28-3-9"
       width="100"
       height="100"
       x="300.5"
       y="551.86218" />
    <rect
       style="fill:#6db2ff;fill-opacity:0.27986348;stroke:#000000;stroke-opacity:0.44363637"
       id="rect4559-2-3-0-7"
       width="100"
       height="100"
       x="0.5"
       y="551.86218" />
    <rect
       style="fill:#6db2ff;fill-opacity:0.27986348;stroke:#000000;stroke-opacity:0.44363637"
       id="rect4559-2-2-2"
       width="100"
       height="100"
       x="100.5"
       y="451.86218" />
    <rect
       style="fill:#6db2ff;fill-opacity:0.27986348;stroke:#000000;stroke-opacity:0.44363637"
       id="rect4559-3-5-8"
       width="100"
       height="100"
       x="200.5"
       y="451.86218" />
    <rect
       style="fill:#6db2ff;fill-opacity:0.27986348;stroke:#000000;stroke-opacity:0.44363637"
       id="rect4559-28-3-8"
       width="100"
       height="100"
       x="300.5"
       y="451.86218" />
    <rect
       style="fill:#6db2ff;fill-opacity:0.27986348;stroke:#000000;stroke-opacity:0.44363637"
       id="rect4559-2-3-0-0"
       width="100"
       height="100"
       x="0.5"
       y="451.86218" />
    <rect
       style="fill:#6db2ff;fill-opacity:0.27986348;stroke:#000000;stroke-opacity:0.44363637"
       id="rect4559-2-2-2-2"
       width="100"
       height="100"
       x="100.5"
       y="351.86218" />
    <rect
       style="fill:#6db2ff;fill-opacity:0.27986348;stroke:#000000;stroke-opacity:0.44363637"
       id="rect4559-3-5-8-2"
       width="100"
       height="100"
       x="200.5"
       y="351.86218" />
    <rect
       style="fill:#6db2ff;fill-opacity:0.27986348;stroke:#000000;stroke-opacity:0.44363637"
       id="rect4559-28-3-8-7"
       width="100"
       height="100"
       x="300.5"
       y="351.86218" />
    <rect
       style="fill:#6db2ff;fill-opacity:0.27986348;stroke:#000000;stroke-opacity:0.44363637"
       id="rect4559-2-3-0-0-5"
       width="100"
       height="100"
       x="0.5"
       y="351.86218" />
    <rect
       style="fill:#6db2ff;fill-opacity:0.27986348;stroke:#000000;stroke-opacity:0.44363637"
       id="rect4559-2-2-2-0"
       width="100"
       height="100"
       x="100.5"
       y="251.86218" />
    <rect
       style="fill:#6db2ff;fill-opacity:0.27986348;stroke:#000000;stroke-opacity:0.44363637"
       id="rect4559-3-5-8-0"
       width="100"
       height="100"
       x="200.5"
       y="251.86218" />
    <rect
       style="fill:#6db2ff;fill-opacity:0.27986348;stroke:#000000;stroke-opacity:0.44363637"
       id="rect4559-28-3-8-6"
       width="100"
       height="100"
       x="300.5"
       y="251.86218" />
    <rect
       style="fill:#6db2ff;fill-opacity:0.27986348;stroke:#000000;stroke-opacity:0.44363637"
       id="rect4559-2-3-0-0-4"
       width="100"
       height="100"
       x="0.5"
       y="251.86218" />
    <rect
       style="fill:#6db2ff;fill-opacity:0.27986348;stroke:#000000;stroke-opacity:0.44363637"
       id="rect4559-2-2-2-9"
       width="100"
       height="100"
       x="100.5"
       y="151.86218" />
    <rect
       style="fill:#6db2ff;fill-opacity:0.27986348;stroke:#000000;stroke-opacity:0.44363637"
       id="rect4559-3-5-8-5"
       width="100"
       height="100"
       x="200.5"
       y="151.86218" />
    <rect
       style="fill:#6db2ff;fill-opacity:0.27986348;stroke:#000000;stroke-opacity:0.44363637"
       id="rect4559-28-3-8-0"
       width="100"
       height="100"
       x="300.5"
       y="151.86218" />
    <rect
       style="fill:#6db2ff;fill-opacity:0.27986348;stroke:#000000;stroke-opacity:0.44363637"
       id="rect4559-2-3-0-0-49"
       width="100"
       height="100"
       x="0.5"
       y="151.86218" />
    <rect
       style="fill:#6db2ff;fill-opacity:0.27986348;stroke:#000000;stroke-opacity:0.44363637"
       id="rect4559-2-2-2-6"
       width="100"
       height="100"
       x="100.5"
       y="51.862179" />
    <rect
       style="fill:#6db2ff;fill-opacity:0.27986348;stroke:#000000;stroke-opacity:0.44363637"
       id="rect4559-3-5-8-21"
       width="100"
       height="100"
       x="200.5"
       y="51.862179" />
    <rect
       style="fill:#6db2ff;fill-opacity:0.27986348;stroke:#000000;stroke-opacity:0.44363637"
       id="rect4559-28-3-8-8"
       width="100"
       height="100"
       x="300.5"
       y="51.862179" />
    <rect
       style="fill:#6db2ff;fill-opacity:0.27986348;stroke:#000000;stroke-opacity:0.44363637"
       id="rect4559-2-3-0-0-0"
       width="100"
       height="100"
       x="0.5"
       y="51.862179" />
    <rect
       style="fill:#6db2ff;fill-opacity:0.27986348;stroke:#000000;stroke-opacity:0.44363637"
       id="rect4559-2-2-2-1"
       width="100"
       height="100"
       x="100.5"
       y="-48.137821" />
    <rect
       style="fill:#6db2ff;fill-opacity:0.27986348;stroke:#000000;stroke-opacity:0.44363637"
       id="rect4559-3-5-8-3"
       width="100"
       height="100"
       x="200.5"
       y="-48.137821" />
    <rect
       style="fill:#6db2ff;fill-opacity:0.27986348;stroke:#000000;stroke-opacity:0.44363637"
       id="rect4559-28-3-8-63"
       width="100"
       height="100"
       x="300.5"
       y="-48.137821" />
    <rect
       style="fill:#6db2ff;fill-opacity:0.27986348;stroke:#000000;stroke-opacity:0.44363637"
       id="rect4559-2-3-0-0-6"
       width="100"
       height="100"
       x="0.5"
       y="-48.137821" />
    <rect
       style="fill:#6db2ff;fill-opacity:0.27986348;stroke:#000000;stroke-opacity:0.44363637"
       id="rect4559-2-2-2-3"
       width="100"
       height="100"
       x="100.5"
       y="-148.13782" />
    <rect
       style="fill:#6db2ff;fill-opacity:0.27986348;stroke:#000000;stroke-opacity:0.44363637"
       id="rect4559-3-5-8-7"
       width="100"
       height="100"
       x="200.5"
       y="-148.13782" />
    <rect
       style="fill:#6db2ff;fill-opacity:0.27986348;stroke:#000000;stroke-opacity:0.44363637"
       id="rect4559-28-3-8-2"
       width="100"
       height="100"
       x="300.5"
       y="-148.13782" />
    <rect
       style="fill:#6db2ff;fill-opacity:0.27986348;stroke:#000000;stroke-opacity:0.44363637"
       id="rect4559-2-3-0-0-68"
       width="100"
       height="100"
       x="0.5"
       y="-148.13782" />
    <rect
       style="fill:#6db2ff;fill-opacity:0.27986348;stroke:#000000;stroke-opacity:0.44363637"
       id="rect4559-2-2-2-24"
       width="100"
       height="100"
       x="100.5"
       y="-348.13782" />
    <rect
       style="fill:#6db2ff;fill-opacity:0.27986348;stroke:#000000;stroke-opacity:0.44363637"
       id="rect4559-3-5-8-8"
       width="100"
       height="100"
       x="200.5"
       y="-348.13782" />
    <rect
       style="fill:#6db2ff;fill-opacity:0.27986348;stroke:#000000;stroke-opacity:0.44363637"
       id="rect4559-28-3-8-23"
       width="100"
       height="100"
       x="300.5"
       y="-348.13782" />
    <rect
       style="fill:#6db2ff;fill-opacity:0.27986348;stroke:#000000;stroke-opacity:0.44363637"
       id="rect4559-2-3-0-0-8"
       width="100"
       height="100"
       x="0.5"
       y="-348.13782" />
    <rect
       style="fill:#6db2ff;fill-opacity:0.27986348;stroke:#000000;stroke-opacity:0.44363637"
       id="rect4559-2-2-2-7"
       width="100"
       height="100"
       x="100.5"
       y="-248.13782" />
    <rect
       style="fill:#6db2ff;fill-opacity:0.27986348;stroke:#000000;stroke-opacity:0.44363637"
       id="rect4559-3-5-8-73"
       width="100"
       height="100"
       x="200.5"
       y="-248.13782" />
    <rect
       style="fill:#6db2ff;fill-opacity:0.27986348;stroke:#000000;stroke-opacity:0.44363637"
       id="rect4559-28-3-8-5"
       width="100"
       height="100"
       x="300.5"
       y="-248.13782" />
    <rect
       style="fill:#6db2ff;fill-opacity:0.27986348;stroke:#000000;stroke-opacity:0.44363637"
       id="rect4559-2-3-0-0-81"
       width="100"
       height="100"
       x="0.5"
       y="-248.13782" />
    <rect
       style="fill:#6db2ff;fill-opacity:0.27986348;stroke:#000000;stroke-opacity:0.44363637"
       id="rect4559-2-2-2-21"
       width="100"
       height="100"
       x="100.5"
       y="-448.13782" />
    <rect
       style="fill:#6db2ff;fill-opacity:0.27986348;stroke:#000000;stroke-opacity:0.44363637"
       id="rect4559-3-5-8-25"
       width="100"
       height="100"
       x="200.5"
       y="-448.13782" />
    <rect
       style="fill:#6db2ff;fill-opacity:0.27986348;stroke:#000000;stroke-opacity:0.44363637"
       id="rect4559-28-3-8-65"
       width="100"
       height="100"
       x="300.5"
       y="-448.13782" />
    <rect
       style="fill:#6db2ff;fill-opacity:0.27986348;stroke:#000000;stroke-opacity:0.44363637"
       id="rect4559-2-3-0-0-9"
       width="100"
       height="100"
       x="0.5"
       y="-448.13782" />
  </g>
  <g
     inkscape:groupmode="layer"
     id="layer5"
     inkscape:label="numbers"
     transform="translate(0,900)">
    <g
       id="g5432"
       transform="translate(-131.91632,-738.88905)">
      <path
         id="text3806"
         d="m 490.30072,1190.1732 0,-3.8847 -1.98633,0.4394 0,3.8848 1.98633,-0.4395 m 2.30273,-0.5273 0,2.8301 -1.40625,0.334 0,5.08 -0.89648,0 0,-4.9043 -1.98633,0.4746 0,5.0625 -0.86133,0 0,-4.8515 -1.40625,0.3164 0,-2.7949 c 0.9375,0 1.40625,-0.1231 1.40625,-0.3692 l 0,-3.8847 -1.40625,0.3515 0,-2.7246 1.40625,-0.3691 0.0352,-5.1856 0.82617,0 0,4.9746 1.98633,-0.4394 0,-5.291 0.89648,0 0,5.08 1.40625,-0.3164 0,2.7246 -1.40625,0.334 0,3.8848 1.40625,-0.3164"
         style="font-size:36px;font-style:normal;font-variant:normal;font-weight:normal;font-stretch:normal;text-align:start;line-height:100%;text-anchor:start;fill:#000000;fill-opacity:1;fill-rule:nonzero;stroke:none;stroke-width:3;marker:none;visibility:visible;display:inline;overflow:visible;font-family:NWCV15"
         inkscape:connector-curvature="0" />
      <path
         id="text3843"
         d="m 480.04959,1197.5521 -6.26172,0 c -0.009,-0.082 -0.0137,-0.1504 -0.0137,-0.2051 0,-0.1549 0.0319,-0.2597 0.0957,-0.3144 0.0638,-0.064 0.26432,-0.1276 0.60157,-0.1914 0.52864,-0.1094 0.95702,-0.2415 1.28515,-0.3965 0.0911,-0.2005 0.13672,-0.3874 0.13672,-0.5605 l 0,-0.8477 c 0,-0.1003 0.0137,-0.5605 0.041,-1.3809 0.009,-0.3098 0.0182,-1.6497 0.0273,-4.0195 l 0.0273,-3.2129 -0.0273,-1.873 c -1e-5,-0.2735 0.009,-1.1348 0.0273,-2.584 -2.06901,1.4766 -3.20377,2.2148 -3.40429,2.2148 -0.0729,0 -0.1504,-0.036 -0.23242,-0.1094 -0.082,-0.082 -0.12305,-0.1594 -0.12305,-0.2324 0,-0.091 0.0319,-0.164 0.0957,-0.2187 0.1276,-0.1185 0.43294,-0.3145 0.91602,-0.5879 0.0729,-0.036 0.38736,-0.2825 0.94336,-0.7383 0.88411,-0.7383 1.53124,-1.317 1.9414,-1.7363 0.41015,-0.4193 0.6608,-0.6562 0.75196,-0.711 0.18228,-0.01 0.32356,-0.014 0.42382,-0.014 0.23698,10e-5 0.38281,0.041 0.4375,0.1231 0.0638,0.073 0.0957,0.3509 0.0957,0.834 l -0.0957,12.1816 0,1.2031 c 0,0.2917 -0.005,0.5879 -0.0137,0.8887 -0.009,0.2917 -0.0137,0.5059 -0.0137,0.6426 -10e-6,0.3281 0.041,0.5423 0.12305,0.6426 0.0547,0.064 0.2233,0.1458 0.50586,0.2461 l 0.92968,0.1914 c 0.40104,0.1002 0.61979,0.1686 0.65625,0.205 0.0911,0.082 0.13671,0.2097 0.13672,0.3829 l -0.0137,0.1777"
         style="font-size:28px;font-style:normal;font-variant:normal;font-weight:normal;font-stretch:normal;text-align:start;line-height:100%;text-anchor:start;fill:#000000;fill-opacity:1;fill-rule:nonzero;stroke:none;stroke-width:3;marker:none;visibility:visible;display:inline;overflow:visible;font-family:Garamond"
         inkscape:connector-curvature="0" />
    </g>
    <path
       transform="translate(0,-452.36218)"
       style="font-size:36px;font-style:normal;font-variant:normal;font-weight:normal;font-stretch:normal;text-align:start;line-height:100%;text-anchor:start;fill:#000000;fill-opacity:1;fill-rule:nonzero;stroke:none;stroke-width:3;marker:none;visibility:visible;display:inline;overflow:visible;font-family:NWCV15"
       d="m 348.97949,1000.1747 0,4.1308 3.18164,-0.8613 0,-3.8848 -3.18164,0.6153 m -1.07226,7.0137 0,-15.66216 0.89648,0 0,6.08203 4.28906,-1.07226 0,15.66209 -0.86133,0 0,-6.082 -4.32421,1.0723"
       id="text3906"
       inkscape:connector-curvature="0" />
  </g>
  <g
     inkscape:groupmode="layer"
     id="layer4"
     inkscape:label="minor text"
     transform="translate(0,900)">
    <path
       style="font-size:36px;font-style:normal;font-variant:normal;font-weight:normal;font-stretch:normal;text-align:start;line-height:100%;text-anchor:start;fill:#1a571a;fill-opacity:1;fill-rule:nonzero;stroke:none;stroke-width:3;marker:none;visibility:visible;display:inline;overflow:visible;font-family:Garamond"
       d="m 256.66993,447.21484 -7.04882,0.053 -1.33594,0 c -0.53907,1e-4 -1.08985,0.023 -1.65234,0.07 -0.10548,0.3516 -0.15821,0.5919 -0.15821,0.7207 l 0.0176,0.1758 0,0.1758 -0.0176,0.8613 c 0,0.7149 0.22265,1.5938 0.66797,2.6367 0.45703,1.0313 1.10156,1.8223 1.93359,2.3731 0.84375,0.5391 1.89257,0.8262 3.14649,0.8613 0.66796,-0.035 1.20116,-0.1172 1.59961,-0.2461 0.39842,-0.1289 0.96092,-0.4277 1.6875,-0.8965 l 1.26562,-1.0371 0.10547,0.7032 c -1e-5,0.082 -0.006,0.1699 -0.0176,0.2636 -0.52735,0.668 -1.19532,1.254 -2.0039,1.7578 -0.80861,0.504 -1.62892,0.8731 -2.46094,1.1075 -0.39845,0.1054 -1.0547,0.1582 -1.96875,0.1582 -0.83204,0 -1.65235,-0.1699 -2.46094,-0.5098 -1.19531,-0.5156 -2.13867,-1.3418 -2.83008,-2.4785 -0.67968,-1.1484 -1.01953,-2.5371 -1.01953,-4.166 0,-0.5156 0.0937,-1.1777 0.28125,-1.9863 0.19922,-0.80857 0.55078,-1.66997 1.05469,-2.58397 0.33984,-0.6211 0.75586,-1.1309 1.24805,-1.5293 0.70312,-0.5625 1.31835,-0.9551 1.8457,-1.1778 0.76171,-0.3164 1.64648,-0.4746 2.6543,-0.4746 1.08983,0 1.98046,0.1993 2.67187,0.5977 0.93749,0.5273 1.63476,1.207 2.0918,2.039 0.46874,0.8321 0.70311,1.5938 0.70312,2.2852 l 0,0.24607 m -9.80859,-0.63277 0.82617,0 c 0.59765,0 2.3789,-0.094 5.34375,-0.2813 0.46874,-0.023 0.75585,-0.07 0.86133,-0.1406 0.21093,-0.2226 0.3164,-0.4219 0.31641,-0.5976 -1e-5,-0.3633 -0.1172,-0.7735 -0.35157,-1.2305 -0.23438,-0.4688 -0.59766,-0.8262 -1.08984,-1.0723 -0.48048,-0.2578 -1.04298,-0.3867 -1.6875,-0.3867 -1.35938,0 -2.44922,0.5098 -3.26953,1.5293 -0.63282,0.7734 -0.94922,1.5 -0.94922,2.1797"
       id="text3581"
       inkscape:connector-curvature="0" />
    <path
       transform="translate(0,-452.36218)"
       style="font-size:36px;font-style:normal;font-variant:normal;font-weight:normal;font-stretch:normal;text-align:start;line-height:100%;text-anchor:start;fill:#1a571a;fill-opacity:1;fill-rule:nonzero;stroke:none;stroke-width:3;marker:none;visibility:visible;display:inline;overflow:visible;font-family:Garamond"
       d="m 257.01267,1006.4413 c 0.0703,0.1524 0.10546,0.2637 0.10548,0.334 -2e-5,0.1758 -0.14065,0.4863 -0.42188,0.9317 -0.36329,0.5859 -0.76759,1.0136 -1.21289,1.2832 -0.28126,0.1757 -0.66798,0.2636 -1.16017,0.2636 -0.84375,0 -1.47656,-0.2578 -1.89843,-0.7734 -0.25782,-0.3047 -0.43946,-0.8496 -0.54492,-1.6348 l -1.96875,1.3711 c -0.69142,0.3985 -1.21875,0.6504 -1.58204,0.7559 -0.58594,0.1523 -1.28906,0.2285 -2.10937,0.2285 -0.59766,0 -1.07227,-0.1758 -1.42383,-0.5274 -0.33984,-0.3632 -0.50977,-0.8261 -0.50976,-1.3886 0,-0.8086 0.49219,-1.7754 1.47656,-2.9004 0.99609,-1.125 2.34375,-2.0449 4.04298,-2.7598 1.19529,-0.5039 1.92772,-0.8262 2.19726,-0.9668 0.0234,-0.3867 0.0351,-0.8086 0.0352,-1.26562 -1e-5,-1.4883 -0.21096,-2.4961 -0.63281,-3.0235 -0.41017,-0.5273 -1.00196,-0.791 -1.7754,-0.791 -0.8086,0 -1.56446,0.3164 -2.26758,0.9492 -0.4336,0.3985 -0.76173,1.1485 -0.98438,2.2501 -0.0703,0.3047 -0.20508,0.6328 -0.40429,0.98432 -0.50391,0.3282 -0.90821,0.4922 -1.21289,0.4922 -0.25782,0 -0.49219,-0.076 -0.70313,-0.2285 -0.11719,-0.082 -0.17577,-0.1758 -0.17577,-0.2812 0,-0.30472 0.32225,-0.99032 0.96679,-2.05672 0.65625,-1.0781 1.47655,-1.8808 2.46094,-2.4082 0.99608,-0.539 1.86327,-0.8086 2.60156,-0.8086 1.0078,0 1.7578,0.094 2.25,0.2813 0.49217,0.1758 0.92577,0.4922 1.30078,0.9492 0.37499,0.457 0.6035,0.9551 0.68554,1.4941 0.0469,0.2578 0.0703,1.1778 0.0703,2.75982 l -0.0527,2.7949 0.0176,2.0391 c -1e-5,0.2695 -0.006,0.498 -0.0176,0.6855 -0.0117,0.3399 -0.0176,0.5918 -0.0176,0.7559 -1e-5,0.3867 0.11132,0.6973 0.33399,0.9316 0.22264,0.2344 0.48631,0.3516 0.79101,0.3516 0.4453,0 0.82616,-0.2227 1.14258,-0.668 l 0.21094,-0.2812 c 0.0586,-0.035 0.1875,-0.076 0.38673,-0.1231 m -5.16798,-0.5097 c 0.082,-1.4883 0.12304,-2.5371 0.12305,-3.1465 -1e-5,-0.3164 -0.0176,-0.7442 -0.0527,-1.2832 -0.78516,0.2812 -1.61719,0.709 -2.49609,1.2832 -0.87891,0.5742 -1.57618,1.2363 -2.0918,1.9863 -0.375,0.5391 -0.5625,1.0488 -0.5625,1.5293 0,0.457 0.15234,0.8379 0.45703,1.1426 0.3164,0.3047 0.70898,0.457 1.17774,0.457 0.36327,0 0.80272,-0.1289 1.31836,-0.3867 0.67968,-0.3398 1.38866,-0.8672 2.12695,-1.582"
       id="text3577"
       inkscape:connector-curvature="0" />
  </g>
  <g
     inkscape:groupmode="layer"
     id="layer3"
     inkscape:label="Major text"
     transform="translate(0,900)">
    <path
       style="font-size:36px;font-style:normal;font-variant:normal;font-weight:normal;font-stretch:normal;text-align:start;line-height:100%;text-anchor:start;fill:#7e0513;fill-opacity:1;fill-rule:nonzero;stroke:none;stroke-width:3;marker:none;visibility:visible;display:inline;overflow:visible;font-family:Garamond"
       d="m 159.48238,439.47349 0.19336,2.6719 c 0.0703,0.8086 0.10544,1.3594 0.10547,1.6523 l -0.49219,0.088 c -0.78518,-1.7812 -1.76369,-3.1172 -2.93555,-4.0078 -1.16017,-0.8906 -2.584,-1.3359 -4.27148,-1.3359 -2.06252,0 -3.66798,0.2519 -4.81641,0.7558 -1.66407,0.7149 -3.0879,1.9571 -4.27148,3.7266 -1.1836,1.7695 -1.7754,3.9023 -1.77539,6.39842 -10e-6,1.4414 0.21679,2.7364 0.65039,3.8848 0.43359,1.1484 1.04296,2.2207 1.82812,3.2168 0.79687,0.9843 1.73437,1.8398 2.8125,2.5664 0.70312,0.4804 1.54101,0.8437 2.51368,1.0898 0.55076,0.1289 1.37107,0.1934 2.46093,0.1934 0.70311,0 1.48241,-0.1 2.33789,-0.2989 0.85545,-0.1992 1.49998,-0.4628 1.9336,-0.791 0.43357,-0.3398 0.72654,-0.7207 0.8789,-1.1425 0.16405,-0.4219 0.24608,-1.2422 0.2461,-2.461 -2e-5,-2.0273 -0.13479,-3.2051 -0.4043,-3.5332 -0.26955,-0.3398 -1.11916,-0.5625 -2.54883,-0.6679 l -0.70312,-0.053 -0.47461,0.018 c -0.0703,-0.012 -0.16408,-0.029 -0.28125,-0.053 l -0.26367,-0.4395 c -2e-5,-0.059 0.041,-0.1348 0.12304,-0.2285 0.60936,-0.094 1.93358,-0.1406 3.97266,-0.1406 0.45701,0 1.20115,0.012 2.23242,0.035 l 1.81055,0.07 1.63476,-0.018 c 0.31638,0 0.69724,0.012 1.14258,0.035 0.082,0.012 0.13474,0.035 0.1582,0.07 0.0234,0.023 0.0351,0.07 0.0352,0.1406 -3e-5,0.1289 -0.0293,0.293 -0.0879,0.4922 -0.49221,0.1055 -0.87307,0.1582 -1.14258,0.1582 l -1.14258,-0.018 c -0.38674,0 -0.69729,0.1348 -0.93164,0.4043 -0.11721,0.1289 -0.1758,0.5683 -0.17578,1.3183 l 0.0176,2.3028 c -2e-5,1.582 -0.0645,2.5898 -0.19336,3.0234 -0.0703,0.2578 -0.21682,0.4922 -0.43945,0.7031 -0.22268,0.1993 -0.69143,0.4395 -1.40625,0.7207 -1.01955,0.4102 -1.94533,0.6856 -2.77735,0.8262 -1.54689,0.2695 -3.04103,0.4043 -4.48242,0.4043 -2.32032,0 -4.22462,-0.293 -5.71289,-0.8789 -1.47657,-0.5977 -2.75391,-1.4238 -3.83203,-2.4785 -1.06641,-1.0547 -1.82813,-2.1211 -2.28516,-3.1993 -0.6914,-1.582 -1.03711,-3.1933 -1.03711,-4.8339 0,-2.0508 0.53906,-4.05472 1.61719,-6.01182 1.08984,-1.9687 2.84179,-3.5683 5.25586,-4.7988 1.69921,-0.8671 4.0078,-1.3007 6.92578,-1.3008 2.01561,1e-4 3.66209,0.1758 4.93946,0.5274 1.28904,0.3516 2.30857,0.75 3.05859,1.1953"
       id="text3347"
       inkscape:connector-curvature="0" />
    <path
       transform="translate(0,-452.36218)"
       style="font-size:36px;font-style:normal;font-variant:normal;font-weight:normal;font-stretch:normal;text-align:start;line-height:100%;text-anchor:start;fill:#7e0513;fill-opacity:1;fill-rule:nonzero;stroke:none;stroke-width:3;marker:none;visibility:visible;display:inline;overflow:visible;font-family:Garamond"
       d="m 159.72855,991.63177 c 0.14061,0.90236 0.21092,1.82814 0.21094,2.77734 -2e-5,0.18752 -0.006,0.43947 -0.0176,0.75586 -0.16408,0.0352 -0.28713,0.0528 -0.36914,0.0527 -0.0703,2e-5 -0.16994,-0.0117 -0.29883,-0.0352 -0.4922,-1.37108 -1.29494,-2.42576 -2.4082,-3.16406 -1.1133,-0.73826 -2.49025,-1.1074 -4.13086,-1.10743 -0.8672,3e-5 -1.59962,0.0996 -2.19727,0.29883 -1.05469,0.36331 -1.98047,0.86721 -2.77734,1.51172 -0.79688,0.63283 -1.47071,1.39455 -2.02148,2.28516 -0.55079,0.87892 -0.99024,1.95119 -1.31836,3.21679 -0.31641,1.25392 -0.47462,2.53712 -0.47461,3.84962 -1e-5,2.5078 0.38085,4.582 1.14258,6.2226 0.76171,1.629 1.80468,2.795 3.1289,3.4981 1.32421,0.6914 2.66015,1.0371 4.00781,1.0371 l 0.82618,-0.018 c 0.93748,-0.1172 1.57615,-0.2285 1.91601,-0.334 0.85545,-0.2461 1.55858,-0.5332 2.10938,-0.8613 0.56248,-0.3399 1.1074,-0.8145 1.63476,-1.4238 0.53904,-0.6094 0.99608,-1.3184 1.3711,-2.127 l 0.21093,-0.07 c 0.0586,0 0.14647,0.035 0.26368,0.1055 -0.0117,0.2812 -0.0235,0.4629 -0.0352,0.5449 -0.49221,1.9805 -0.84963,3.334 -1.07227,4.0605 -0.18752,0.047 -0.42189,0.1172 -0.70312,0.211 -1.37111,0.4687 -3.2051,0.7031 -5.50195,0.7031 -1.85158,0 -3.24025,-0.1289 -4.16602,-0.3867 -0.91407,-0.246 -1.91602,-0.6327 -3.00586,-1.1601 -1.07813,-0.539 -2.02735,-1.248 -2.84766,-2.1269 -0.82031,-0.8789 -1.48242,-1.9864 -1.98632,-3.3223 -0.50391,-1.3477 -0.75586,-2.8125 -0.75586,-4.3945 0,-1.5 0.19921,-2.80666 0.59765,-3.91995 0.39844,-1.12499 1.01367,-2.26171 1.84571,-3.41016 0.83202,-1.14842 1.81054,-2.1035 2.93554,-2.86524 1.13671,-0.76169 2.39648,-1.30075 3.7793,-1.61718 0.97264,-0.21092 2.3496,-0.31639 4.13086,-0.31641 1.30076,2e-5 2.52537,0.17581 3.67383,0.52734 1.14842,0.33987 1.91599,0.67385 2.30273,1.00196"
       id="text2190"
       inkscape:connector-curvature="0" />
  </g>
  <g
     inkscape:groupmode="layer"
     id="layer2"
     inkscape:label="signatures"
     transform="translate(0,900)">
    <g
       id="g5354"
       transform="translate(20.98083,-774.0587)">
      <path
         id="text4543"
         d="m 33.15956,1211.0043 0,-3.588 -1.8346,0.4059 0,3.588 1.8346,-0.4059 m 2.12683,-0.4871 0,2.6139 -1.29883,0.3085 0,4.692 -0.828,0 0,-4.5296 -1.8346,0.4383 0,4.6758 -0.79554,0 0,-4.481 -1.29883,0.2923 0,-2.5815 c 0.86589,0 1.29883,-0.1136 1.29883,-0.3409 l 0,-3.588 -1.29883,0.3247 0,-2.5165 1.29883,-0.3409 0.0325,-4.7895 0.76307,0 0,4.5946 1.8346,-0.4059 0,-4.8868 0.828,0 0,4.692 1.29883,-0.2922 0,2.5165 -1.29883,0.3084 0,3.5881 1.29883,-0.2923"
         style="font-size:33.25009918px;font-style:normal;font-variant:normal;font-weight:normal;font-stretch:normal;text-align:start;line-height:100%;text-anchor:start;fill:#000000;fill-opacity:1;fill-rule:nonzero;stroke:none;stroke-width:3;marker:none;visibility:visible;display:inline;overflow:visible;font-family:NWCV15"
         inkscape:connector-curvature="0" />
      <path
         id="text4547"
         d="m 22.10751,1226.2417 1.99696,8.7184 c 0.84423,-0.4221 1.5207,-1.0336 2.02942,-1.8346 0.53034,-0.8009 0.79552,-1.6885 0.79554,-2.6626 -2e-5,-0.4005 -0.0541,-0.7739 -0.16236,-1.1202 -0.14072,-0.3572 -0.34095,-0.7144 -0.60071,-1.0716 -0.40048,-0.6386 -0.9579,-1.1364 -1.67224,-1.4936 -0.70355,-0.3572 -1.49908,-0.5358 -2.38661,-0.5358 m -1.62354,-7.5495 0.99036,4.4972 c 0.37882,-0.065 0.76847,-0.097 1.16895,-0.097 1.19059,0 2.2513,0.2976 3.18214,0.8929 0.95246,0.5953 1.71011,1.38 2.27296,2.3541 0.53034,1.0066 0.79551,2.0728 0.79553,3.1984 -2e-5,1.3746 -0.41131,2.5923 -1.23389,3.653 -0.84426,1.0499 -1.98614,1.8941 -3.42567,2.5327 l 1.20142,5.4226 c 0.0433,0.3031 0.0649,0.7144 0.0649,1.2339 -10e-6,1.3746 -0.43296,2.4678 -1.29883,3.2796 -0.88755,0.8442 -2.1052,1.3312 -3.65296,1.4611 -0.48707,0 -0.94167,-0.033 -1.36378,-0.097 -0.40048,-0.043 -0.8226,-0.1623 -1.26636,-0.3571 -0.80095,-0.2923 -1.44495,-0.7252 -1.93201,-1.2989 -0.53036,-0.552 -0.82801,-1.1852 -0.89295,-1.8995 0,-0.5737 0.10823,-1.1148 0.32471,-1.6236 0.11906,-0.2705 0.26517,-0.5033 0.43836,-0.6981 0.15152,-0.2056 0.34093,-0.395 0.56824,-0.5682 0.40046,-0.2923 0.85505,-0.4708 1.36377,-0.5358 0.57364,0 1.08235,0.1137 1.52613,0.341 0.44375,0.2164 0.79552,0.5249 1.0553,0.9254 0.14069,0.2164 0.24352,0.4167 0.30847,0.6007 0.0649,0.2165 0.0974,0.4383 0.0974,0.6656 -10e-6,0.5737 -0.1353,1.0607 -0.40588,1.4612 -0.30307,0.3788 -0.68731,0.644 -1.15272,0.7956 -0.46542,0.2056 -0.92001,0.3084 -1.36377,0.3084 0.0216,0.368 0.30847,0.6549 0.86048,0.8605 0.5087,0.1948 1.08776,0.2922 1.73718,0.2922 1.32047,-0.1515 2.31624,-0.5736 2.98732,-1.2663 0.35716,-0.3464 0.63316,-0.7414 0.828,-1.1852 0.17317,-0.4438 0.25976,-0.9579 0.25977,-1.5424 -10e-6,-0.7035 -0.0758,-1.3421 -0.2273,-1.9157 l -0.99036,-4.2537 c -0.88754,0.2165 -1.7859,0.3247 -2.69507,0.3247 -1.6452,0 -3.16591,-0.4005 -4.56215,-1.2014 -1.41789,-0.7685 -2.57061,-1.8292 -3.45814,-3.1822 -0.68189,-1.0715 -1.08236,-1.7913 -1.20142,-2.1593 -0.15153,-0.4654 -0.22729,-0.9903 -0.22729,-1.5748 l -0.0974,-1.5261 c 0,-1.1473 0.23271,-2.2459 0.69813,-3.2958 0.44376,-1.0824 1.04447,-2.089 1.80213,-3.0198 0.68188,-0.9092 1.32047,-1.6614 1.91577,-2.2567 l 3.29579,-3.101 c -0.28142,-1.039 -0.50331,-2.0564 -0.66565,-3.0522 -0.12989,-0.9958 -0.19483,-1.9483 -0.19483,-2.8575 0,-0.9091 0.14611,-1.9644 0.43836,-3.1659 0.30305,-1.1472 0.75223,-2.235 1.34754,-3.2633 0.31387,-0.4654 0.63858,-0.8171 0.97412,-1.0553 0.25976,-0.2056 0.64941,-0.3842 1.16895,-0.5358 0.23811,10e-5 0.47081,0.054 0.69812,0.1624 0.2814,0.184 0.54658,0.4871 0.79553,0.9092 0.53035,0.9308 0.98494,2.0132 1.36378,3.2471 0.17316,0.6711 0.30305,1.2609 0.38965,1.7696 0.10822,0.5088 0.16234,1.0066 0.16235,1.4937 -10e-6,0.617 -0.0541,1.1906 -0.16235,1.7209 -0.10825,0.5196 -0.27061,1.1311 -0.48706,1.8346 -0.24896,0.7144 -0.47084,1.3043 -0.66566,1.7697 -0.29225,0.5737 -0.61695,1.1365 -0.97412,1.6885 -0.66025,1.0391 -1.48825,2.0024 -2.48402,2.8899 m 2.64637,16.5276 -1.91577,-8.8808 c -0.82261,0.2273 -1.52073,0.6928 -2.09437,1.3963 -0.62777,0.6927 -0.94166,1.4504 -0.94165,2.2729 -10e-6,1.2339 0.77929,2.1864 2.3379,2.8575 0.12987,0.043 0.19481,0.1407 0.19482,0.2922 -10e-6,0.1624 -0.1353,0.2435 -0.40588,0.2435 -1.10402,-0.3355 -2.00238,-0.9578 -2.69508,-1.867 -0.72519,-0.9092 -1.08778,-1.9158 -1.08777,-3.0198 -10e-6,-1.0499 0.41129,-2.0727 1.23389,-3.0685 0.79011,-0.9958 1.73177,-1.6831 2.82496,-2.0619 l -0.90919,-4.0264 c -0.5953,0.4871 -1.17977,1.0012 -1.75342,1.5424 -0.5953,0.5087 -1.10401,0.9849 -1.52613,1.4287 -0.90918,0.8875 -1.67225,1.9104 -2.28919,3.0685 -0.60612,1.1473 -0.90918,2.3487 -0.90918,3.6042 0,0.9742 0.18941,1.8617 0.56824,2.6627 0.40047,0.8009 0.97412,1.4882 1.72095,2.0619 0.75765,0.5953 1.62354,1.039 2.59767,1.3313 0.97411,0.3138 2.00776,0.4708 3.10096,0.4708 0.32469,0 0.62234,-0.022 0.89294,-0.065 0.29223,-0.054 0.644,-0.1353 1.0553,-0.2436 m 0.60071,-28.4931 -0.16235,-0.6007 c -0.0974,-0.3463 -0.30848,-0.7305 -0.63318,-1.1527 -0.24895,-0.2922 -0.52496,-0.4383 -0.82801,-0.4384 -0.24895,0.043 -0.47083,0.1733 -0.66565,0.3897 -0.0217,0.033 -0.30848,0.433 -0.86047,1.2014 -0.48707,0.7144 -0.85508,1.5262 -1.10401,2.4353 -0.10824,0.4438 -0.20566,0.8876 -0.29224,1.3313 -0.065,0.4222 -0.0974,0.8064 -0.0974,1.1527 -10e-6,0.9742 0.16235,2.1053 0.48706,3.3932 0.60611,-0.487 1.18518,-1.0607 1.73719,-1.7209 0.44376,-0.552 0.91999,-1.2393 1.42872,-2.0619 0.40046,-0.6494 0.67646,-1.2826 0.828,-1.8996 0.10822,-0.5303 0.16234,-1.2068 0.16235,-2.0294"
         style="font-size:33.25009918px;font-style:normal;font-variant:normal;font-weight:normal;font-stretch:normal;text-align:start;line-height:100%;text-anchor:start;fill:#cccccc;fill-opacity:1;fill-rule:nonzero;stroke:none;stroke-width:3;marker:none;visibility:visible;display:inline;overflow:visible;font-family:NWCV15"
         inkscape:connector-curvature="0" />
      <path
         id="path4551"
         d="m 8.43689,1229.7504 42.16456,0"
         style="fill:#000000;fill-opacity:1;fill-rule:nonzero;stroke:#000000;stroke-width:1;stroke-linecap:butt;stroke-linejoin:miter;stroke-miterlimit:4;stroke-opacity:1;stroke-dashoffset:0;marker:none;visibility:visible;display:inline;overflow:visible"
         inkscape:connector-curvature="0" />
      <path
         id="path4553"
         d="m 8.43689,1223.1152 42.16456,0"
         style="fill:#000000;fill-opacity:1;fill-rule:nonzero;stroke:#000000;stroke-width:1;stroke-linecap:butt;stroke-linejoin:miter;stroke-miterlimit:4;stroke-opacity:1;stroke-dashoffset:0;marker:none;visibility:visible;display:inline;overflow:visible"
         inkscape:connector-curvature="0" />
      <path
         id="path4555"
         d="m 8.43689,1216.4801 42.16456,0"
         style="fill:#000000;fill-opacity:1;fill-rule:nonzero;stroke:#000000;stroke-width:1;stroke-linecap:butt;stroke-linejoin:miter;stroke-miterlimit:4;stroke-opacity:1;stroke-dashoffset:0;marker:none;visibility:visible;display:inline;overflow:visible"
         inkscape:connector-curvature="0" />
      <path
         id="path4557"
         d="m 8.43689,1209.8449 42.16456,0"
         style="fill:#000000;fill-opacity:1;fill-rule:nonzero;stroke:#000000;stroke-width:1;stroke-linecap:butt;stroke-linejoin:miter;stroke-miterlimit:4;stroke-opacity:1;stroke-dashoffset:0;marker:none;visibility:visible;display:inline;overflow:visible"
         inkscape:connector-curvature="0" />
      <path
         id="path4559"
         d="m 8.43689,1236.3856 42.16456,0"
         style="fill:#000000;fill-opacity:1;fill-rule:nonzero;stroke:#000000;stroke-width:1;stroke-linecap:butt;stroke-linejoin:miter;stroke-miterlimit:4;stroke-opacity:1;stroke-dashoffset:0;marker:none;visibility:visible;display:inline;overflow:visible"
         inkscape:connector-curvature="0" />
    </g>
    <g
       style="display:inline"
       id="g5840"
       transform="translate(-7.844458,-543.04975)">
      <path
         id="text4829-6"
         d="m 49.223708,1094.6272 1.99695,8.7184 c 0.84423,-0.4221 1.5207,-1.0336 2.02943,-1.8346 0.53034,-0.8009 0.79551,-1.6885 0.79553,-2.6626 -2e-5,-0.4004 -0.0541,-0.7739 -0.16235,-1.1202 -0.14073,-0.3572 -0.34096,-0.7144 -0.60071,-1.0716 -0.40049,-0.6385 -0.95791,-1.1364 -1.67225,-1.4936 -0.70355,-0.3572 -1.49908,-0.5358 -2.3866,-0.5358 m -1.62354,-7.5494 0.99036,4.4972 c 0.37881,-0.065 0.76846,-0.097 1.16894,-0.097 1.19059,0 2.2513,0.2976 3.18214,0.8929 0.95246,0.5953 1.71011,1.38 2.27296,2.3541 0.53034,1.0066 0.79552,2.0728 0.79553,3.1984 -10e-6,1.3746 -0.41131,2.5923 -1.23389,3.653 -0.84425,1.0499 -1.98614,1.8941 -3.42567,2.5327 l 1.20142,5.4226 c 0.0433,0.3031 0.0649,0.7144 0.0649,1.2339 -1e-5,1.3746 -0.43295,2.4678 -1.29883,3.2796 -0.88754,0.8442 -2.1052,1.3313 -3.65296,1.4612 -0.48707,-10e-5 -0.94166,-0.033 -1.36377,-0.097 -0.40049,-0.043 -0.82261,-0.1624 -1.26637,-0.3572 -0.80095,-0.2923 -1.44495,-0.7252 -1.93201,-1.2989 -0.53036,-0.552 -0.82801,-1.1852 -0.89295,-1.8995 0,-0.5737 0.10824,-1.1148 0.32471,-1.6235 0.11906,-0.2706 0.26518,-0.5033 0.43836,-0.6982 0.15152,-0.2056 0.34094,-0.395 0.56824,-0.5682 0.40046,-0.2922 0.85506,-0.4708 1.36377,-0.5358 0.57364,0 1.08235,0.1137 1.52613,0.341 0.44376,0.2164 0.79552,0.5249 1.0553,0.9254 0.1407,0.2165 0.24352,0.4167 0.30847,0.6007 0.0649,0.2165 0.0974,0.4384 0.0974,0.6657 -10e-6,0.5736 -0.1353,1.0607 -0.40588,1.4611 -0.30307,0.3789 -0.68731,0.644 -1.15271,0.7956 -0.46543,0.2056 -0.92002,0.3084 -1.36378,0.3084 0.0216,0.368 0.30847,0.6549 0.86048,0.8605 0.5087,0.1948 1.08776,0.2922 1.73719,0.2923 1.32046,-0.1516 2.31623,-0.5737 2.98731,-1.2664 0.35717,-0.3464 0.63317,-0.7414 0.828,-1.1852 0.17317,-0.4438 0.25976,-0.9579 0.25977,-1.5424 -10e-6,-0.7035 -0.0758,-1.3421 -0.22729,-1.9157 l -0.99036,-4.2537 c -0.88755,0.2165 -1.78591,0.3247 -2.69508,0.3247 -1.64519,0 -3.16591,-0.4005 -4.56215,-1.2014 -1.41789,-0.7685 -2.5706,-1.8292 -3.45814,-3.1822 -0.68188,-1.0715 -1.08236,-1.7913 -1.20142,-2.1593 -0.15153,-0.4654 -0.22729,-0.9903 -0.22729,-1.5748 l -0.0974,-1.5261 c 0,-1.1473 0.2327,-2.2459 0.69812,-3.2958 0.44376,-1.0824 1.04447,-2.0889 1.80213,-3.0198 0.68188,-0.9092 1.32047,-1.6614 1.91577,-2.2567 l 3.29579,-3.101 c -0.28142,-1.039 -0.5033,-2.0564 -0.66565,-3.0522 -0.12989,-0.9958 -0.19483,-1.9482 -0.19483,-2.8575 0,-0.9091 0.14612,-1.9644 0.43836,-3.1659 0.30305,-1.1472 0.75223,-2.235 1.34754,-3.2633 0.31387,-0.4654 0.63858,-0.8171 0.97412,-1.0553 0.25976,-0.2056 0.64941,-0.3842 1.16895,-0.5357 0.23811,0 0.47082,0.054 0.69812,0.1623 0.2814,0.184 0.54658,0.4871 0.79554,0.9092 0.53034,0.9309 0.98493,2.0132 1.36377,3.2471 0.17316,0.6711 0.30305,1.261 0.38965,1.7696 0.10822,0.5088 0.16234,1.0067 0.16235,1.4937 -1e-5,0.617 -0.0541,1.1906 -0.16235,1.7209 -0.10825,0.5196 -0.2706,1.1311 -0.48706,1.8346 -0.24896,0.7144 -0.47084,1.3043 -0.66565,1.7697 -0.29225,0.5737 -0.61696,1.1365 -0.97413,1.6885 -0.66025,1.0391 -1.48825,2.0024 -2.48401,2.8899 m 2.64637,16.5276 -1.91578,-8.8807 c -0.8226,0.2273 -1.52072,0.6927 -2.09437,1.3962 -0.62777,0.6927 -0.94166,1.4504 -0.94165,2.273 -10e-6,1.2338 0.77929,2.1863 2.3379,2.8574 0.12987,0.043 0.19481,0.1407 0.19482,0.2922 -1e-5,0.1624 -0.1353,0.2436 -0.40588,0.2436 -1.10402,-0.3356 -2.00238,-0.9579 -2.69508,-1.8671 -0.72519,-0.9092 -1.08778,-1.9158 -1.08777,-3.0198 -1e-5,-1.0499 0.41129,-2.0727 1.23389,-3.0685 0.79012,-0.9958 1.73177,-1.6831 2.82496,-2.0619 l -0.90918,-4.0264 c -0.59531,0.4871 -1.17978,1.0012 -1.75343,1.5424 -0.5953,0.5087 -1.10401,0.985 -1.52612,1.4287 -0.90919,0.8876 -1.67225,1.9104 -2.28919,3.0685 -0.60613,1.1473 -0.90919,2.3487 -0.90919,3.6043 0,0.9741 0.18941,1.8616 0.56824,2.6626 0.40047,0.8009 0.97412,1.4882 1.72095,2.0619 0.75765,0.5953 1.62354,1.039 2.59767,1.3313 0.97411,0.3138 2.00777,0.4708 3.10096,0.4708 0.3247,0 0.62235,-0.022 0.89295,-0.065 0.29222,-0.054 0.64399,-0.1353 1.0553,-0.2435 m 0.60071,-28.4932 -0.16236,-0.6007 c -0.0974,-0.3463 -0.30848,-0.7305 -0.63318,-1.1527 -0.24895,-0.2922 -0.52495,-0.4383 -0.828,-0.4383 -0.24896,0.043 -0.47084,0.1732 -0.66565,0.3896 -0.0217,0.033 -0.30849,0.433 -0.86048,1.2014 -0.48707,0.7144 -0.85507,1.5262 -1.10401,2.4353 -0.10824,0.4438 -0.20565,0.8876 -0.29223,1.3313 -0.065,0.4222 -0.0974,0.8064 -0.0974,1.1527 -1e-5,0.9742 0.16235,2.1053 0.48706,3.3932 0.60612,-0.487 1.18518,-1.0606 1.73719,-1.7209 0.44376,-0.552 0.92,-1.2393 1.42872,-2.0619 0.40046,-0.6494 0.67646,-1.2826 0.828,-1.8995 0.10823,-0.5304 0.16234,-1.2068 0.16236,-2.0295"
         style="font-size:33.25009918px;font-style:normal;font-variant:normal;font-weight:normal;font-stretch:normal;text-align:start;line-height:100%;text-anchor:start;fill:#cccccc;fill-opacity:1;fill-rule:nonzero;stroke:none;stroke-width:3;marker:none;visibility:visible;display:inline;overflow:visible;font-family:NWCV15"
         inkscape:connector-curvature="0" />
      <path
         id="path4833-4"
         d="m 35.553058,1098.1359 45.5828,0"
         style="fill:#000000;fill-opacity:1;fill-rule:nonzero;stroke:#000000;stroke-width:1;stroke-linecap:butt;stroke-linejoin:miter;stroke-miterlimit:4;stroke-opacity:1;stroke-dashoffset:0;marker:none;visibility:visible;display:inline;overflow:visible"
         inkscape:connector-curvature="0" />
      <path
         id="path4835-3"
         d="m 35.553058,1091.5007 45.5828,0"
         style="fill:#000000;fill-opacity:1;fill-rule:nonzero;stroke:#000000;stroke-width:1;stroke-linecap:butt;stroke-linejoin:miter;stroke-miterlimit:4;stroke-opacity:1;stroke-dashoffset:0;marker:none;visibility:visible;display:inline;overflow:visible"
         inkscape:connector-curvature="0" />
      <path
         id="path4837-0"
         d="m 35.553058,1084.8656 45.5828,0"
         style="fill:#000000;fill-opacity:1;fill-rule:nonzero;stroke:#000000;stroke-width:1;stroke-linecap:butt;stroke-linejoin:miter;stroke-miterlimit:4;stroke-opacity:1;stroke-dashoffset:0;marker:none;visibility:visible;display:inline;overflow:visible"
         inkscape:connector-curvature="0" />
      <path
         id="path4839-5"
         d="m 35.553058,1078.2304 45.5828,0"
         style="fill:#000000;fill-opacity:1;fill-rule:nonzero;stroke:#000000;stroke-width:1;stroke-linecap:butt;stroke-linejoin:miter;stroke-miterlimit:4;stroke-opacity:1;stroke-dashoffset:0;marker:none;visibility:visible;display:inline;overflow:visible"
         inkscape:connector-curvature="0" />
      <path
         id="path4841-4"
         d="m 35.553058,1104.7711 45.5828,0"
         style="fill:#000000;fill-opacity:1;fill-rule:nonzero;stroke:#000000;stroke-width:1;stroke-linecap:butt;stroke-linejoin:miter;stroke-miterlimit:4;stroke-opacity:1;stroke-dashoffset:0;marker:none;visibility:visible;display:inline;overflow:visible"
         inkscape:connector-curvature="0" />
    </g>
  </g>
</svg>
